<svg width="20" height="20" viewBox="0 0 20 20" fill="none" xmlns="http://www.w3.org/2000/svg">
<g id="icon / Multiple pictures" filter="url(#filter0_d_166_1859)">
<g id="Subtract">
<path fill-rule="evenodd" clip-rule="evenodd" d="M5.84658 14.0513C6.54521 15.2186 7.82197 16 9.28125 16H13C15.2091 16 17 14.2091 17 12V8.28125C17 6.82224 16.2189 5.54568 15.052 4.84697C15.083 5.01994 15.0992 5.19804 15.0992 5.37993V11.0987C15.0992 12.7555 13.756 14.0987 12.0992 14.0987H6.38042C6.19823 14.0987 6.01982 14.0824 5.84658 14.0513ZM13.6639 4.33609C13.7 4.55203 13.7188 4.77382 13.7188 5V8.71875C13.7188 10.9279 11.9279 12.7188 9.71875 12.7188H6C5.77382 12.7188 5.55203 12.7 5.33609 12.6639C5.30002 12.448 5.28125 12.2262 5.28125 12V8.28125C5.28125 6.07211 7.07211 4.28125 9.28125 4.28125H13C13.2262 4.28125 13.448 4.30002 13.6639 4.33609Z" fill="white"/>
<path d="M5.84658 14.0513L5.8731 13.9037C5.81522 13.8933 5.7566 13.9177 5.72317 13.9661C5.68974 14.0144 5.68767 14.0779 5.71787 14.1284L5.84658 14.0513ZM15.052 4.84697L15.129 4.71828C15.0786 4.68807 15.0151 4.69013 14.9667 4.72354C14.9184 4.75696 14.894 4.81556 14.9043 4.87345L15.052 4.84697ZM13.6639 4.33609L13.8119 4.31138C13.8013 4.2482 13.7518 4.1987 13.6886 4.18814L13.6639 4.33609ZM5.33609 12.6639L5.18814 12.6886C5.1987 12.7518 5.2482 12.8013 5.31138 12.8119L5.33609 12.6639ZM9.28125 15.85C7.87687 15.85 6.64795 15.0982 5.97529 13.9743L5.71787 14.1284C6.44246 15.339 7.76707 16.15 9.28125 16.15V15.85ZM13 15.85H9.28125V16.15H13V15.85ZM16.85 12C16.85 14.1263 15.1263 15.85 13 15.85V16.15C15.292 16.15 17.15 14.292 17.15 12H16.85ZM16.85 8.28125V12H17.15V8.28125H16.85ZM14.9749 4.97567C16.0984 5.64841 16.85 6.87714 16.85 8.28125H17.15C17.15 6.76735 16.3393 5.44296 15.129 4.71828L14.9749 4.97567ZM15.2492 5.37993C15.2492 5.18913 15.2322 5.00216 15.1996 4.8205L14.9043 4.87345C14.9338 5.03771 14.9492 5.20696 14.9492 5.37993H15.2492ZM15.2492 11.0987V5.37993H14.9492V11.0987H15.2492ZM12.0992 14.2487C13.8389 14.2487 15.2492 12.8384 15.2492 11.0987H14.9492C14.9492 12.6727 13.6732 13.9487 12.0992 13.9487V14.2487ZM6.38042 14.2487H12.0992V13.9487H6.38042V14.2487ZM5.82007 14.199C6.00202 14.2316 6.18929 14.2487 6.38042 14.2487V13.9487C6.20716 13.9487 6.03763 13.9332 5.8731 13.9037L5.82007 14.199ZM13.516 4.36081C13.5507 4.56861 13.5688 4.78214 13.5688 5H13.8687C13.8687 4.76551 13.8493 4.53545 13.8119 4.31138L13.516 4.36081ZM13.5688 5V8.71875H13.8687V5H13.5688ZM13.5688 8.71875C13.5688 10.845 11.845 12.5688 9.71875 12.5688V12.8687C12.0107 12.8687 13.8687 11.0107 13.8687 8.71875H13.5688ZM9.71875 12.5688H6V12.8687H9.71875V12.5688ZM6 12.5688C5.78214 12.5688 5.56861 12.5507 5.36081 12.516L5.31138 12.8119C5.53545 12.8493 5.76551 12.8687 6 12.8687V12.5688ZM5.48404 12.6392C5.44933 12.4314 5.43125 12.2179 5.43125 12H5.13125C5.13125 12.2345 5.15071 12.4646 5.18814 12.6886L5.48404 12.6392ZM5.43125 12V8.28125H5.13125V12H5.43125ZM5.43125 8.28125C5.43125 6.15495 7.15495 4.43125 9.28125 4.43125V4.13125C6.98927 4.13125 5.13125 5.98927 5.13125 8.28125H5.43125ZM9.28125 4.43125H13V4.13125H9.28125V4.43125ZM13 4.43125C13.2179 4.43125 13.4314 4.44933 13.6392 4.48404L13.6886 4.18814C13.4646 4.15071 13.2345 4.13125 13 4.13125V4.43125Z" fill="#E1DFE2"/>
</g>
<rect id="Rectangle 699" x="2.15" y="1.15" width="11.4187" height="11.4187" rx="2.35" fill="white" stroke="#E1DFE2" stroke-width="0.3"/>
</g>
<defs>
<filter id="filter0_d_166_1859" x="0" y="0" width="19.1504" height="19.1504" filterUnits="userSpaceOnUse" color-interpolation-filters="sRGB">
<feFlood flood-opacity="0" result="BackgroundImageFix"/>
<feColorMatrix in="SourceAlpha" type="matrix" values="0 0 0 0 0 0 0 0 0 0 0 0 0 0 0 0 0 0 127 0" result="hardAlpha"/>
<feOffset dy="1"/>
<feGaussianBlur stdDeviation="1"/>
<feColorMatrix type="matrix" values="0 0 0 0 0 0 0 0 0 0 0 0 0 0 0 0 0 0 0.25 0"/>
<feBlend mode="normal" in2="BackgroundImageFix" result="effect1_dropShadow_166_1859"/>
<feBlend mode="normal" in="SourceGraphic" in2="effect1_dropShadow_166_1859" result="shape"/>
</filter>
</defs>
</svg>
